<?xml version="1.0" standalone="no"?>
<!DOCTYPE svg PUBLIC "-//W3C//DTD SVG 20010904//EN"
 "http://www.w3.org/TR/2001/REC-SVG-20010904/DTD/svg10.dtd">
<svg version="1.0" xmlns="http://www.w3.org/2000/svg"
 width="700.000000pt" height="700.000000pt" viewBox="0 0 700.000000 700.000000"
 preserveAspectRatio="xMidYMid meet">
<metadata>
Created by potrace 1.14, written by Peter Selinger 2001-2017
</metadata>
<g transform="translate(0.000000,700.000000) scale(0.100000,-0.100000)"
fill="#000000" stroke="none">
<path d="M2201 6688 c-18 -5 -196 -131 -405 -287 -204 -152 -479 -358 -611
-457 -132 -98 -256 -190 -275 -203 -19 -13 -37 -26 -40 -30 -3 -3 -143 -109
-312 -236 -261 -195 -310 -236 -323 -268 -22 -54 -19 -108 8 -148 17 -26 264
-221 469 -371 13 -9 124 -91 248 -184 124 -92 259 -192 300 -223 41 -31 80
-60 85 -64 50 -42 807 -602 829 -614 36 -19 122 -12 160 12 14 9 36 33 48 54
23 36 23 38 23 423 0 214 2 389 5 389 3 1 259 2 570 3 545 1 566 2 599 21 66
39 94 104 79 181 -10 46 -53 99 -96 115 -18 7 -251 11 -695 11 l-667 0 -44
-26 c-75 -44 -78 -62 -78 -408 l0 -297 -43 32 c-24 18 -55 41 -70 52 -15 11
-253 188 -529 394 -276 205 -520 388 -544 405 -23 17 -57 43 -75 58 -18 15
-35 28 -38 28 -3 0 -16 8 -28 19 -12 10 -37 29 -56 42 -19 13 -35 26 -35 29 1
5 230 177 685 513 110 82 214 160 230 172 26 21 276 207 446 332 l57 42 0
-328 c-1 -292 1 -332 17 -364 17 -36 63 -77 95 -86 8 -2 924 -5 2035 -6 1589
-1 2029 1 2063 11 103 30 143 163 75 252 -53 70 106 65 -2025 64 -1449 0
-1928 3 -1929 11 0 7 -2 194 -3 417 -2 453 -1 447 -74 494 -44 29 -84 36 -131
24z"/>
<path d="M4401 4808 c-54 -9 -94 -39 -116 -85 -44 -92 -4 -195 87 -227 25 -8
350 -11 1244 -11 1089 1 1212 3 1239 17 88 47 116 156 61 238 -51 77 44 72
-1286 74 -654 0 -1207 -2 -1229 -6z"/>
<path d="M4730 3410 c-50 -14 -89 -40 -112 -77 l-23 -38 -1 -415 -1 -415
-1671 -5 -1671 -5 -28 -21 c-54 -40 -75 -83 -71 -145 5 -63 32 -110 81 -137
30 -16 143 -17 1791 -19 1540 -2 1763 0 1795 13 56 24 84 55 98 114 2 8 4 160
5 338 1 233 4 320 12 313 19 -15 1041 -776 1228 -915 97 -72 177 -133 177
-136 0 -3 -76 -61 -170 -130 -93 -69 -175 -130 -182 -135 -7 -6 -104 -80 -217
-164 -113 -83 -216 -161 -230 -171 -14 -11 -146 -109 -295 -220 -148 -110
-277 -206 -285 -213 -9 -7 -21 -16 -27 -20 -8 -5 -11 73 -11 291 0 248 -2 303
-15 332 -21 47 -36 64 -74 84 -30 15 -188 16 -2082 14 l-2050 -3 -28 -21 c-15
-11 -38 -38 -51 -60 -43 -75 -9 -183 69 -222 35 -18 121 -18 1968 -18 1281 1
1931 -2 1932 -9 0 -5 2 -181 3 -390 2 -406 2 -411 53 -457 27 -25 93 -46 128
-41 45 6 73 25 445 303 190 142 539 403 775 579 237 177 440 329 452 339 12 9
83 62 158 117 144 106 175 144 175 215 0 75 -28 106 -243 265 -111 83 -209
155 -217 162 -8 6 -152 114 -320 239 -168 125 -490 366 -717 535 -227 169
-423 315 -437 324 -34 22 -85 33 -116 25z"/>
<path d="M155 2445 c-67 -31 -97 -76 -97 -143 0 -81 43 -140 117 -162 118 -35
234 82 201 200 -26 94 -135 146 -221 105z"/>
</g>
</svg>
